<?xml version="1.0" encoding="utf-8"?>
<!-- Generator: Adobe Illustrator 17.0.0, SVG Export Plug-In . SVG Version: 6.00 Build 0)  -->
<!DOCTYPE svg PUBLIC "-//W3C//DTD SVG 1.1//EN" "http://www.w3.org/Graphics/SVG/1.1/DTD/svg11.dtd" [
	<!ENTITY ns_extend "http://ns.adobe.com/Extensibility/1.0/">
	<!ENTITY ns_ai "http://ns.adobe.com/AdobeIllustrator/10.0/">
	<!ENTITY ns_graphs "http://ns.adobe.com/Graphs/1.0/">
	<!ENTITY ns_vars "http://ns.adobe.com/Variables/1.0/">
	<!ENTITY ns_imrep "http://ns.adobe.com/ImageReplacement/1.0/">
	<!ENTITY ns_sfw "http://ns.adobe.com/SaveForWeb/1.0/">
	<!ENTITY ns_custom "http://ns.adobe.com/GenericCustomNamespace/1.0/">
	<!ENTITY ns_adobe_xpath "http://ns.adobe.com/XPath/1.0/">
]>
<svg version="1.1" id="Layer_1" xmlns:x="&ns_extend;" xmlns:i="&ns_ai;" xmlns:graph="&ns_graphs;"
	 xmlns="http://www.w3.org/2000/svg" xmlns:xlink="http://www.w3.org/1999/xlink" x="0px" y="0px" width="50px" height="50px"
	 viewBox="0 0 50 50" enable-background="new 0 0 50 50" xml:space="preserve">
<metadata>
	<sfw  xmlns="&ns_sfw;">
		<slices></slices>
		<sliceSourceBounds  height="50" width="50" x="0" y="-50" bottomLeftOrigin="true"></sliceSourceBounds>
	</sfw>
</metadata>
<g>
	<path fill="#25428F" d="M25,24.453c5.559,0,10.066-5.474,10.066-12.227C35.066,5.474,33.586,0,25,0S14.934,5.474,14.934,12.227
		C14.934,18.979,19.441,24.453,25,24.453z"/>
	<path fill="#25428F" d="M5.987,43.122C5.985,42.71,5.984,43.006,5.987,43.122L5.987,43.122z"/>
	<path fill="#25428F" d="M44.012,43.443C44.018,43.331,44.014,42.661,44.012,43.443L44.012,43.443z"/>
	<path fill="#25428F" d="M43.991,42.628c-0.186-11.763-1.723-15.115-13.479-17.237c0,0-1.655,2.109-5.512,2.109
		s-5.512-2.109-5.512-2.109C7.86,27.49,6.23,30.792,6.016,42.246c-0.018,0.935-0.026,0.984-0.029,0.876
		c0.001,0.203,0.002,0.58,0.002,1.236C5.988,44.358,8.787,50,25,50c16.212,0,19.011-5.642,19.011-5.642c0-0.422,0-0.715,0.001-0.914
		C44.009,43.511,44.003,43.381,43.991,42.628z"/>
</g>
<g display="none">
	<g display="inline">
		<path fill="#333333" d="M45.792,20.957c-1.116,0-2.02,0.904-2.02,2.02v2.034c-0.003,5.306-2.072,10.294-5.827,14.044
			c-3.752,3.747-8.737,5.811-14.039,5.811c-0.004,0-0.008,0-0.012,0C12.94,44.86,4.033,35.943,4.039,24.989
			c0.003-5.306,2.072-10.294,5.827-14.044c3.752-3.747,8.737-5.811,14.039-5.811c0.004,0,0.008,0,0.012,0
			c2.8,0.002,5.517,0.58,8.074,1.72c1.019,0.454,2.213-0.004,2.667-1.023c0.454-1.019-0.004-2.213-1.023-2.667
			c-3.078-1.371-6.347-2.068-9.716-2.07c-0.005,0-0.009,0-0.014,0c-6.38,0-12.38,2.483-16.894,6.992
			C2.494,12.599,0.004,18.601,0,24.986c-0.004,6.385,2.479,12.39,6.992,16.908s10.514,7.008,16.9,7.012c0.005,0,0.009,0,0.014,0
			c6.38,0,12.38-2.483,16.894-6.992c4.518-4.513,7.008-10.514,7.012-16.901v-2.035C47.811,21.862,46.907,20.957,45.792,20.957z"/>
	</g>
</g>
<g display="none">
	<g display="inline">
		<path fill="#333333" d="M49.408,3.887c-0.789-0.789-2.068-0.789-2.856,0L23.906,26.533l-5.138-5.138
			c-0.789-0.789-2.068-0.789-2.856,0c-0.789,0.789-0.789,2.068,0,2.856l6.566,6.566c0.394,0.394,0.911,0.592,1.428,0.592
			c0.517,0,1.034-0.197,1.428-0.592L49.408,6.743C50.197,5.955,50.197,4.676,49.408,3.887z"/>
	</g>
</g>
<g display="none">
	<g id="Layer_5_90_" display="inline">
		<g>
			<path fill="#333333" d="M21.738,19.009c1.889-2.049,2.929-4.796,2.929-7.738C24.668,5.67,20.667,0,13.019,0
				C9.46,0,6.458,1.222,4.336,3.535c-1.879,2.049-2.914,4.796-2.914,7.736c0,5.602,3.984,11.271,11.598,11.271
				C16.592,22.543,19.607,21.321,21.738,19.009z M13.019,5.241c4.19,0,6.099,3.128,6.099,6.034c0,1.581-0.532,3.045-1.499,4.121
				c-1.079,1.202-2.646,1.837-4.532,1.837c-4.296,0-6.253-3.128-6.253-6.034C6.834,8.234,8.747,5.241,13.019,5.241z"/>
			<path fill="#333333" d="M40.833,4.348c-0.693,0.013-1.639,0.445-2.103,0.96L4.327,43.559c-0.463,0.516-0.135,1.238,0.558,1.238
				h4.503c0.693,0,1.638-0.423,2.101-0.939L45.679,5.616c0.463-0.517,0.432-1.357-0.713-1.357L40.833,4.348z"/>
			<path fill="#333333" d="M37.073,26.846c-3.49,0-6.436,1.2-8.518,3.468c-1.844,2.009-2.859,4.705-2.859,7.589
				c0,5.494,3.908,11.057,11.377,11.057c3.505,0,6.463-1.199,8.554-3.466c1.853-2.01,2.873-4.705,2.873-7.59
				C48.5,32.409,44.575,26.846,37.073,26.846z M37.14,43.886c-4.18,0-6.084-3.139-6.084-6.054c0-1.588,0.532-3.057,1.498-4.137
				c1.077-1.205,2.64-1.842,4.519-1.842c4.18,0,6.084,3.138,6.084,6.054c0,1.587-0.532,3.057-1.497,4.137
				C40.582,43.249,39.02,43.886,37.14,43.886z"/>
		</g>
	</g>
</g>
<g display="none">
	<path display="inline" fill="#333333" d="M7.378,8.9V2.811c0-0.841,0.681-1.522,1.522-1.522c0.841,0,1.522,0.681,1.522,1.522V8.9
		c0,0.841-0.681,1.522-1.522,1.522C8.059,10.422,7.378,9.741,7.378,8.9z M33.256,10.422c0.841,0,1.522-0.681,1.522-1.522V2.811
		c0-0.841-0.681-1.522-1.522-1.522c-0.841,0-1.523,0.681-1.523,1.522V8.9C31.733,9.741,32.414,10.422,33.256,10.422z M50,37.822
		C50,44.548,44.548,50,37.822,50c-6.725,0-12.178-5.452-12.178-12.178c0-6.725,5.453-12.177,12.178-12.177
		C44.548,25.644,50,31.097,50,37.822z M46.956,37.822c0-5.036-4.097-9.133-9.134-9.133c-5.036,0-9.133,4.097-9.133,9.133
		c0,5.037,4.097,9.134,9.133,9.134C42.859,46.955,46.956,42.859,46.956,37.822z M13.467,19.556H7.378v6.089h6.089V19.556z
		 M7.378,34.778h6.089v-6.089H7.378V34.778z M16.511,25.644H22.6v-6.089h-6.089V25.644z M16.511,34.778H22.6v-6.089h-6.089V34.778z
		 M4.334,37.519V16.511h33.489V22.6h3.045V10.726c0-1.849-1.475-3.348-3.297-3.348H36.3V8.9c0,1.677-1.365,3.044-3.044,3.044
		c-1.68,0-3.044-1.368-3.044-3.044V7.378H11.944V8.9c0,1.677-1.365,3.044-3.044,3.044c-1.68,0-3.045-1.368-3.045-3.044V7.378H4.588
		c-1.822,0-3.299,1.499-3.299,3.348v26.794c0,1.843,1.476,3.348,3.299,3.348H22.6v-3.045H4.588
		C4.45,37.822,4.334,37.679,4.334,37.519z M31.733,25.644v-6.089h-6.089v6.089H31.733z M42.389,37.822h-4.567v-4.567
		c0-0.841-0.681-1.522-1.522-1.522s-1.522,0.681-1.522,1.522v6.09c0,0.841,0.68,1.522,1.522,1.522h6.089
		c0.841,0,1.522-0.681,1.522-1.522C43.911,38.503,43.231,37.822,42.389,37.822z"/>
</g>
<g display="none">
	<g display="inline">
		<g>
			<g>
				<g>
					<path fill="#333333" d="M38.848,26.117c-5.912,0-10.706,4.795-10.706,10.706c0,5.909,4.794,10.702,10.706,10.702
						c5.909,0,10.703-4.792,10.703-10.702C49.551,30.912,44.757,26.117,38.848,26.117z M39.535,44.735v-0.924
						c0-0.382-0.308-0.691-0.687-0.691c-0.382,0-0.69,0.31-0.69,0.691v0.924c-3.833-0.33-6.895-3.392-7.224-7.224h0.927
						c0.379,0,0.688-0.308,0.688-0.687c0-0.385-0.31-0.69-0.688-0.69h-0.927c0.33-3.834,3.392-6.893,7.224-7.224v0.926
						c0,0.381,0.308,0.69,0.69,0.69c0.379,0,0.687-0.31,0.687-0.69v-0.926c3.834,0.331,6.896,3.391,7.224,7.224h-0.927
						c-0.381,0-0.688,0.305-0.688,0.69c0,0.379,0.308,0.687,0.688,0.687h0.927C46.432,41.343,43.369,44.405,39.535,44.735z"/>
				</g>
			</g>
		</g>
		<g>
			<g>
				<g>
					<path fill="#333333" d="M42.836,35.788h-2.483c-0.331-0.477-0.881-0.795-1.505-0.795c-0.009,0-0.02,0.003-0.031,0.003
						l-2.263-3.186c-0.33-0.464-0.975-0.571-1.441-0.243c-0.464,0.331-0.575,0.978-0.243,1.443l2.264,3.187
						c-0.07,0.196-0.114,0.404-0.114,0.625c0,1.009,0.817,1.826,1.827,1.826c0.624,0,1.177-0.314,1.505-0.793h2.483
						c0.57,0,1.033-0.461,1.033-1.032C43.869,36.25,43.406,35.788,42.836,35.788z"/>
				</g>
			</g>
		</g>
		<g>
			<g>
				<g>
					<path fill="#333333" d="M10.302,15.517c1.873,0,3.389-1.517,3.389-3.388V4.776c0-1.872-1.516-3.388-3.389-3.388
						c-1.872,0-3.387,1.517-3.387,3.388v7.353C6.915,13.999,8.431,15.517,10.302,15.517z"/>
				</g>
			</g>
		</g>
		<g>
			<g>
				<g>
					<path fill="#333333" d="M31.057,15.517c1.873,0,3.389-1.517,3.389-3.388V4.776c0-1.872-1.516-3.388-3.389-3.388
						c-1.87,0-3.387,1.517-3.387,3.388v7.353C27.669,13.999,29.186,15.517,31.057,15.517z"/>
				</g>
			</g>
		</g>
		<g>
			<g>
				<g>
					<path fill="#333333" d="M14.894,24.925c0-0.967-0.782-1.751-1.752-1.751H9.895c-0.967,0-1.753,0.784-1.753,1.751v3.246
						c0,0.969,0.786,1.755,1.753,1.755h3.247c0.969,0,1.752-0.786,1.752-1.755V24.925z"/>
				</g>
			</g>
		</g>
		<g>
			<g>
				<g>
					<path fill="#333333" d="M24.057,24.927c0-0.967-0.784-1.75-1.75-1.75h-3.249c-0.967,0-1.75,0.783-1.75,1.75v3.246
						c0,0.966,0.783,1.752,1.75,1.752h3.249c0.966,0,1.75-0.786,1.75-1.752V24.927z"/>
				</g>
			</g>
		</g>
		<g>
			<g>
				<g>
					<path fill="#333333" d="M28.22,23.174c-0.969,0-1.753,0.784-1.753,1.751v3.246c0,0.877,0.653,1.568,1.491,1.699
						c1.284-2.001,3.104-3.621,5.257-4.668v-0.277c0-0.967-0.783-1.751-1.752-1.751L28.22,23.174L28.22,23.174z"/>
				</g>
			</g>
		</g>
		<g>
			<g>
				<g>
					<path fill="#333333" d="M9.896,31.972c-0.967,0-1.753,0.783-1.753,1.75v3.247c0,0.967,0.786,1.75,1.753,1.75h3.249
						c0.967,0,1.75-0.783,1.75-1.75v-3.247c0-0.967-0.782-1.75-1.75-1.75H9.896z"/>
				</g>
			</g>
		</g>
		<g>
			<g>
				<g>
					<path fill="#333333" d="M22.304,31.974h-3.246c-0.967,0-1.75,0.784-1.75,1.752v3.244c0,0.967,0.783,1.75,1.75,1.75h3.246
						c0.966,0,1.75-0.783,1.75-1.75v-3.244C24.054,32.758,23.27,31.974,22.304,31.974z"/>
				</g>
			</g>
		</g>
		<g>
			<g>
				<g>
					<path fill="#333333" d="M27.038,42.073H10.564c-2.836,0-5.143-2.308-5.143-5.14V19.727h30.521v4.502
						c0.935-0.215,1.904-0.341,2.907-0.341c0.86,0,1.699,0.089,2.513,0.251V7.955h-4.882v4.173c0,2.989-2.431,5.421-5.422,5.421
						c-2.99,0-5.421-2.431-5.421-5.421V7.955h-9.911v4.173c0,2.989-2.432,5.421-5.422,5.421c-2.989,0-5.421-2.431-5.421-5.421V7.955
						H0v28.977c0,5.832,4.729,10.564,10.564,10.564h20.232c0.24,0,0.477-0.02,0.713-0.035
						C29.566,46.118,28.013,44.254,27.038,42.073z"/>
				</g>
			</g>
		</g>
	</g>
</g>
<g display="none">
	<g display="inline">
		<path fill="#FFFFFF" d="M29.739,14.125H12.128c-0.456,0-0.826,0.376-0.826,0.841c0,0.465,0.37,0.841,0.826,0.841h17.611
			c0.456,0,0.826-0.376,0.826-0.841C30.565,14.501,30.195,14.125,29.739,14.125z M29.739,20.907H12.128
			c-0.456,0-0.826,0.377-0.826,0.841c0,0.465,0.37,0.841,0.826,0.841h17.611c0.456,0,0.826-0.376,0.826-0.841
			C30.565,21.284,30.195,20.907,29.739,20.907z M49.525,16.095l-4.871-4.964c-0.716-0.73-1.986-0.623-2.831,0.238l-2.681,2.732
			l7.469,7.611l2.68-2.732C50.136,18.119,50.241,16.824,49.525,16.095z M25.084,28.426H12.128c-0.456,0-0.826,0.376-0.826,0.841
			c0,0.465,0.37,0.841,0.826,0.841h11.305l-3.347,3.412c-0.082,0.084-0.309,0.314-0.39,0.639c-0.017,0.036-0.032,0.074-0.045,0.113
			l-2.962,9.471c-0.081,0.265-0.029,0.531,0.141,0.704c0.169,0.174,0.431,0.228,0.691,0.143l9.295-3.019
			c0.037-0.012,0.075-0.027,0.112-0.045c0.318-0.083,0.545-0.314,0.627-0.398l17.81-18.15l-7.469-7.612L25.084,28.426z
			 M21.386,41.804l-1.96-1.997l1.233-3.946l4.598,4.685L21.386,41.804z M37.609,19.37l-13.884,14.15
			c-0.264,0.269-0.693,0.269-0.957,0c-0.264-0.27-0.264-0.707,0-0.976l13.885-14.149c0.264-0.27,0.692-0.27,0.957,0
			C37.874,18.663,37.874,19.1,37.609,19.37z M36.77,45.331h0.001c0,0.505-0.404,0.917-0.9,0.917H19.487l-1.48,0.481
			c-0.297,0.096-0.603,0.146-0.909,0.146c-0.651,0-1.257-0.228-1.752-0.627H6.843c-0.496,0-0.901-0.411-0.901-0.917V6.803
			c0-0.506,0.404-0.917,0.901-0.917h3.375v1.452c0,0.506,0.403,0.917,0.901,0.917c0.497,0,0.9-0.411,0.9-0.917V5.886h5.176v1.452
			c0,0.506,0.403,0.917,0.9,0.917c0.498,0,0.9-0.411,0.9-0.917V5.886h4.5v1.452c0,0.506,0.403,0.917,0.901,0.917
			c0.497,0,0.9-0.411,0.9-0.917V5.886h4.951v1.452c0,0.506,0.403,0.917,0.9,0.917c0.498,0,0.901-0.411,0.901-0.917V5.886h3.825
			c0.496,0,0.9,0.412,0.9,0.917v6.354l0.944-0.961l1.757-1.791V6.803c0-2.023-1.615-3.669-3.601-3.669h-3.825V0.918
			C32.047,0.411,31.644,0,31.146,0c-0.497,0-0.9,0.41-0.9,0.918v2.217h-4.952V0.918c0-0.507-0.403-0.918-0.9-0.918
			c-0.498,0-0.9,0.41-0.9,0.918v2.217h-4.501V0.918c0-0.507-0.403-0.918-0.9-0.918c-0.497,0-0.9,0.41-0.9,0.918v2.217h-5.175V0.918
			c0-0.507-0.403-0.918-0.9-0.918c-0.498,0-0.901,0.41-0.901,0.918v2.217H6.841c-1.985,0-3.601,1.646-3.601,3.669V45.33
			c0,2.023,1.616,3.67,3.601,3.67H35.87c1.985,0,3.601-1.646,3.601-3.67V31.974l-2.701,2.752V45.331z"/>
	</g>
</g>
</svg>
